<svg xmlns="http://www.w3.org/2000/svg" width="900" height="260" viewBox="0 0 900 260">
  <defs>
    <linearGradient id="bg" x1="0" y1="0" x2="1" y2="1">
      <stop offset="0%" stop-color="#0f172a"/>
      <stop offset="50%" stop-color="#1e1b4b"/>
      <stop offset="100%" stop-color="#0f172a"/>
    </linearGradient>
    <linearGradient id="accent" x1="0" y1="0" x2="1" y2="0">
      <stop offset="0%" stop-color="#818cf8"/>
      <stop offset="100%" stop-color="#a78bfa"/>
    </linearGradient>
  </defs>
  <rect width="900" height="260" fill="url(#bg)" rx="16"/>
  <rect x="0" y="254" width="900" height="6" fill="url(#accent)" rx="0"/>

  <!-- Shield icon -->
  <g transform="translate(60, 60)">
    <rect width="60" height="60" rx="14" fill="#6366f1" opacity="0.15"/>
    <path d="M30 14 L46 22 V34 C46 42 39 49 30 52 C21 49 14 42 14 34 V22 Z"
          fill="none" stroke="#818cf8" stroke-width="2.5"/>
    <path d="M24 33 L28 37 L36 29" fill="none" stroke="#818cf8" stroke-width="2.5" stroke-linecap="round" stroke-linejoin="round"/>
  </g>

  <!-- Title -->
  <text x="140" y="88" font-family="Inter, system-ui, sans-serif" font-size="36" font-weight="700" fill="#f8fafc">CloudSec AI</text>
  <text x="140" y="118" font-family="Inter, system-ui, sans-serif" font-size="16" fill="#94a3b8">Threat Modeling · STRIDE/DREAD para diagramas de arquitetura</text>

  <!-- Description -->
  <text x="60" y="168" font-family="Inter, system-ui, sans-serif" font-size="14" fill="#cbd5e1">Análise automatizada de ameaças em diagramas de arquitetura cloud usando LLMs multimodais.</text>
  <text x="60" y="190" font-family="Inter, system-ui, sans-serif" font-size="14" fill="#cbd5e1">Identifica componentes, conexões e vulnerabilidades com metodologia STRIDE e priorização DREAD.</text>

  <!-- Tech tags -->
  <g transform="translate(60, 212)">
    <rect width="60" height="24" rx="6" fill="#6366f1" opacity="0.2"/>
    <text x="30" y="16" font-family="Inter, system-ui, sans-serif" font-size="11" fill="#a5b4fc" text-anchor="middle">FastAPI</text>

    <rect x="68" width="52" height="24" rx="6" fill="#6366f1" opacity="0.2"/>
    <text x="94" y="16" font-family="Inter, system-ui, sans-serif" font-size="11" fill="#a5b4fc" text-anchor="middle">React</text>

    <rect x="128" width="60" height="24" rx="6" fill="#6366f1" opacity="0.2"/>
    <text x="158" y="16" font-family="Inter, system-ui, sans-serif" font-size="11" fill="#a5b4fc" text-anchor="middle">Gemini</text>

    <rect x="196" width="60" height="24" rx="6" fill="#6366f1" opacity="0.2"/>
    <text x="226" y="16" font-family="Inter, system-ui, sans-serif" font-size="11" fill="#a5b4fc" text-anchor="middle">OpenAI</text>

    <rect x="264" width="74" height="24" rx="6" fill="#6366f1" opacity="0.2"/>
    <text x="301" y="16" font-family="Inter, system-ui, sans-serif" font-size="11" fill="#a5b4fc" text-anchor="middle">LangChain</text>

    <rect x="346" width="54" height="24" rx="6" fill="#6366f1" opacity="0.2"/>
    <text x="373" y="16" font-family="Inter, system-ui, sans-serif" font-size="11" fill="#a5b4fc" text-anchor="middle">Celery</text>

    <rect x="408" width="52" height="24" rx="6" fill="#6366f1" opacity="0.2"/>
    <text x="434" y="16" font-family="Inter, system-ui, sans-serif" font-size="11" fill="#a5b4fc" text-anchor="middle">Docker</text>

    <rect x="468" width="54" height="24" rx="6" fill="#6366f1" opacity="0.2"/>
    <text x="495" y="16" font-family="Inter, system-ui, sans-serif" font-size="11" fill="#a5b4fc" text-anchor="middle">STRIDE</text>

    <rect x="530" width="54" height="24" rx="6" fill="#6366f1" opacity="0.2"/>
    <text x="557" y="16" font-family="Inter, system-ui, sans-serif" font-size="11" fill="#a5b4fc" text-anchor="middle">DREAD</text>

    <rect x="592" width="42" height="24" rx="6" fill="#6366f1" opacity="0.2"/>
    <text x="613" y="16" font-family="Inter, system-ui, sans-serif" font-size="11" fill="#a5b4fc" text-anchor="middle">RAG</text>
  </g>
</svg>
